<svg width="356" height="155" viewBox="0 0 356 155" fill="none" xmlns="http://www.w3.org/2000/svg">
<circle cx="77.5" cy="77.5" r="77.5" fill="#22C55E"/>
<path d="M120.159 37.5454L106.636 119H88.1818L65.9091 76.2045H65.4318L58.2727 119H36.1591L49.6818 37.5454H68.4546L90.4091 80.1818H91.0455L98.0455 37.5454H120.159Z" fill="white"/>
<path d="M174.102 136L183.761 77.8182H194.301L186.119 127.165H211.744L210.267 136H174.102ZM229.472 136L222.71 77.8182H234.045L237.455 120.574H237.994L256.261 77.8182H266.574L270.722 120.602H271.233L288.79 77.8182H300.125L274.045 136H263.648L258.818 95.1761H258.364L239.869 136H229.472ZM355.246 77.8182L345.587 136H336.212L315.388 96.3693H314.933L308.314 136H297.774L307.433 77.8182H316.865L337.661 117.477H338.2L344.763 77.8182H355.246Z" fill="#22C55E"/>
</svg>
